# xmcd
#
# Track frame offsets:
#	150
#	30798
#	52325
#	72270
#	87837
#	104377
#	131498
#	152295
#	173213
#	180996
#	195590
#	223441
#
# Disc length: 3241 seconds
#
# Revision: 0
# Processed by: cddbd v1.5.2PL0 Copyright (c) Steve Scherf et al.
# Submitted via: EasyCDDAExtractor 11.5.0.1
#
DISCID=9e0ca70c
DTITLE=Various Artist - Future Breeze
DYEAR=2005
DGENRE=Pumping
TTITLE0=Pump Estate - It's Like That
TTITLE1=Pump Estate - Yes, yes, yo!
TTITLE2=Pump Estate - Body Don't Stop
TTITLE3=Pump Estate - Afterparty (Pump Estate Rmx)
TTITLE4=Pump Estate - Devil
TTITLE5=Pump Estate and Dead Factory - Big Bass Bomb
TTITLE6=XS Project - Штырит До Упора (Pump Estate Rmx)
TTITLE7=Pump Estate - I Go Crazy
TTITLE8=Pump Estate - Rhithm is a dancer
TTITLE9=Pump Estate - Весело Шагать
TTITLE10=Pump Estate - Fly
TTITLE11=DJ Shers - Do It (Pump Estate Rmx)
EXTD=
EXTT0=
EXTT1=
EXTT2=
EXTT3=
EXTT4=
EXTT5=
EXTT6=
EXTT7=
EXTT8=
EXTT9=
EXTT10=
EXTT11=
PLAYORDER=
